<svg width="120" height="120" viewBox="0 0 120 120" fill="none" xmlns="http://www.w3.org/2000/svg">
<rect x="120" y="120" width="120" height="120" rx="24" transform="rotate(-180 120 120)" fill="#F4F4F4"/>
<path d="M60.0003 25.5C40.9765 25.5 25.5 40.9765 25.5 60C25.5 79.0235 40.9763 94.5 60.0001 94.5C79.0237 94.5 94.5 79.0235 94.5 60C94.5 40.9765 79.0237 25.5 60.0003 25.5ZM60.0003 37.1619C64.1852 37.1619 68.11 38.2944 71.4867 40.2675L40.2676 71.4863C38.2943 68.1099 37.1618 64.1848 37.1618 60C37.1618 47.407 47.4073 37.1619 60.0003 37.1619ZM60.0003 82.8381C55.8152 82.8381 51.8905 81.7056 48.5139 79.7325L79.733 48.5137C81.706 51.8903 82.8385 55.8151 82.8385 60C82.8385 72.593 72.5931 82.8381 60.0003 82.8381Z" fill="#66B788"/>
</svg>
